
<svg width="1440" height="800" viewBox="0 0 1440 800" xmlns="http://www.w3.org/2000/svg">
  <defs>
    <pattern id="smallGrid" width="20" height="20" patternUnits="userSpaceOnUse">
      <path d="M 20 0 L 0 0 0 20" fill="none" stroke="rgba(255,255,255,0.05)" stroke-width="1"/>
    </pattern>
    <pattern id="grid" width="100" height="100" patternUnits="userSpaceOnUse">
      <rect width="100" height="100" fill="url(#smallGrid)"/>
      <path d="M 100 0 L 0 0 0 100" fill="none" stroke="rgba(255,255,255,0.1)" stroke-width="1"/>
    </pattern>
    <linearGradient id="gradientOverlay" x1="0%" y1="0%" x2="100%" y2="100%">
      <stop offset="0%" style="stop-color:rgba(20,30,48,1);stop-opacity:0.7" />
      <stop offset="100%" style="stop-color:rgba(36,59,85,0.9);stop-opacity:0.7" />
    </linearGradient>
  </defs>
  <rect width="100%" height="100%" fill="#141E30"/>
  <rect width="100%" height="100%" fill="url(#grid)" />
  <rect width="100%" height="100%" fill="url(#gradientOverlay)" />
  
  <!-- Adding some network-like lines -->
  <circle cx="400" cy="300" r="3" fill="rgba(84,101,255,0.8)"/>
  <circle cx="700" cy="200" r="3" fill="rgba(84,101,255,0.8)"/>
  <circle cx="1000" cy="400" r="3" fill="rgba(84,101,255,0.8)"/>
  <circle cx="300" cy="500" r="3" fill="rgba(84,101,255,0.8)"/>
  <circle cx="1100" cy="600" r="3" fill="rgba(84,101,255,0.8)"/>
  
  <line x1="400" y1="300" x2="700" y2="200" stroke="rgba(84,101,255,0.4)" stroke-width="1"/>
  <line x1="700" y1="200" x2="1000" y2="400" stroke="rgba(84,101,255,0.4)" stroke-width="1"/>
  <line x1="300" y1="500" x2="400" y2="300" stroke="rgba(84,101,255,0.4)" stroke-width="1"/>
  <line x1="1000" y1="400" x2="1100" y2="600" stroke="rgba(84,101,255,0.4)" stroke-width="1"/>
  <line x1="300" y1="500" x2="1100" y2="600" stroke="rgba(84,101,255,0.2)" stroke-width="1"/>
</svg>
